<svg width="400" height="400" viewBox="0 0 400 400" fill="none" xmlns="http://www.w3.org/2000/svg">
  <!-- Fox body -->
  <ellipse cx="200" cy="280" rx="60" ry="80" fill="#F18701"/>
  
  <!-- Fox head -->
  <circle cx="200" cy="180" r="50" fill="#F18701"/>
  
  <!-- Fox ears -->
  <ellipse cx="175" cy="140" rx="15" ry="25" fill="#F18701" transform="rotate(-20 175 140)"/>
  <ellipse cx="225" cy="140" rx="15" ry="25" fill="#F18701" transform="rotate(20 225 140)"/>
  <ellipse cx="175" cy="145" rx="8" ry="15" fill="#2D2D2D" transform="rotate(-20 175 145)"/>
  <ellipse cx="225" cy="145" rx="8" ry="15" fill="#2D2D2D" transform="rotate(20 225 145)"/>
  
  <!-- Fox snout -->
  <ellipse cx="200" cy="195" rx="20" ry="15" fill="#F5F0E8"/>
  
  <!-- Fox nose -->
  <circle cx="200" cy="190" r="4" fill="#2D2D2D"/>
  
  <!-- Fox eyes -->
  <circle cx="185" cy="170" r="8" fill="#2D2D2D"/>
  <circle cx="215" cy="170" r="8" fill="#2D2D2D"/>
  <circle cx="187" cy="168" r="3" fill="white"/>
  <circle cx="217" cy="168" r="3" fill="white"/>
  
  <!-- Fox tail -->
  <ellipse cx="140" cy="300" rx="25" ry="40" fill="#F18701" transform="rotate(-30 140 300)"/>
  <ellipse cx="135" cy="285" rx="12" ry="20" fill="#F5F0E8" transform="rotate(-30 135 285)"/>
  
  <!-- Fox arms holding book -->
  <ellipse cx="165" cy="240" rx="12" ry="30" fill="#F18701" transform="rotate(-20 165 240)"/>
  <ellipse cx="235" cy="240" rx="12" ry="30" fill="#F18701" transform="rotate(20 235 240)"/>
  
  <!-- Book -->
  <rect x="170" y="220" width="60" height="40" rx="3" fill="#A8DADC"/>
  <rect x="175" y="225" width="50" height="2" fill="#2D2D2D"/>
  <rect x="175" y="230" width="45" height="2" fill="#2D2D2D"/>
  <rect x="175" y="235" width="40" height="2" fill="#2D2D2D"/>
  <rect x="175" y="240" width="35" height="2" fill="#2D2D2D"/>
  <rect x="175" y="245" width="50" height="2" fill="#2D2D2D"/>
  <rect x="175" y="250" width="45" height="2" fill="#2D2D2D"/>
  
  <!-- Book spine -->
  <rect x="200" y="220" width="2" height="40" fill="#2D2D2D"/>
  
  <!-- Sparkles around fox (indicating learning) -->
  <circle cx="120" cy="160" r="3" fill="#FFD166"/>
  <circle cx="280" cy="180" r="2" fill="#FFD166"/>
  <circle cx="300" cy="220" r="3" fill="#FFD166"/>
  <circle cx="100" cy="240" r="2" fill="#FFD166"/>
  <circle cx="320" cy="280" r="3" fill="#FFD166"/>
  
  <!-- Star shapes for extra magic -->
  <path d="M130 120 L132 126 L138 126 L133 130 L135 136 L130 132 L125 136 L127 130 L122 126 L128 126 Z" fill="#FFD166"/>
  <path d="M270 140 L272 146 L278 146 L273 150 L275 156 L270 152 L265 156 L267 150 L262 146 L268 146 Z" fill="#FFD166"/>
  
  <!-- Ground/base -->
  <ellipse cx="200" cy="360" rx="80" ry="20" fill="#B7E4C7" opacity="0.5"/>
</svg>
