<?xml version="1.0" standalone="no"?>
<!DOCTYPE svg PUBLIC "-//W3C//DTD SVG 20010904//EN"
 "http://www.w3.org/TR/2001/REC-SVG-20010904/DTD/svg10.dtd">
<svg version="1.0" xmlns="http://www.w3.org/2000/svg"
 width="500.000000pt" height="500.000000pt" viewBox="0 0 500.000000 500.000000"
 preserveAspectRatio="xMidYMid meet">

<g transform="translate(0.000000,500.000000) scale(0.100000,-0.100000)"
fill="#000000" stroke="none">
<path d="M2855 4198 c-48 -55 -147 -198 -167 -242 -9 -21 -18 -26 -47 -26 -58
0 -131 -41 -187 -104 -28 -31 -54 -53 -57 -49 -4 3 -7 21 -7 39 0 17 -8 42
-18 54 l-18 22 -32 -27 c-19 -16 -36 -43 -44 -68 -17 -62 -24 -65 -60 -27
-116 118 -378 296 -402 273 -11 -12 -6 -199 9 -294 8 -53 23 -130 35 -172 11
-42 20 -83 20 -90 0 -7 -38 -45 -84 -85 -80 -67 -142 -147 -208 -268 -38 -69
-78 -193 -89 -273 -14 -105 -6 -304 16 -383 43 -159 136 -319 250 -431 36 -35
65 -68 65 -73 0 -5 -19 -18 -42 -29 -59 -28 -116 -89 -129 -139 -18 -67 -7
-174 25 -233 22 -41 26 -55 17 -71 -6 -11 -17 -85 -26 -163 -8 -79 -19 -184
-25 -234 -8 -78 -7 -93 8 -120 16 -26 24 -30 69 -33 91 -5 125 27 149 143 l9
40 60 8 c176 22 190 26 213 52 16 19 22 39 22 73 0 68 -16 76 -146 67 -57 -4
-107 -8 -111 -9 -5 0 -9 15 -11 35 -4 43 -1 44 133 54 50 4 116 11 149 16 32
6 60 8 62 6 3 -2 0 -17 -6 -32 -34 -91 -29 -224 11 -291 81 -133 407 -116 549
28 22 23 42 39 43 37 2 -2 9 -18 16 -35 18 -46 80 -78 133 -69 34 6 54 20 114
81 41 41 77 74 82 74 5 0 28 -20 50 -44 22 -24 51 -51 63 -60 26 -18 100 -21
130 -6 26 15 49 62 49 104 0 35 -11 52 -92 141 -16 16 -28 33 -28 36 0 4 31
35 69 70 78 73 91 94 91 143 0 75 -48 120 -123 115 -40 -3 -42 -2 -37 21 19
92 -7 188 -68 253 -31 33 -112 77 -141 77 -43 0 -37 20 38 129 54 79 95 168
122 267 17 61 20 97 17 173 -5 112 -31 177 -100 248 l-42 42 37 16 c20 8 48
15 62 15 60 0 84 42 48 82 -16 18 -15 20 20 49 20 17 37 38 37 46 0 9 -31 46
-68 82 -49 48 -81 90 -115 156 -26 50 -72 121 -102 158 -58 74 -61 82 -69 222
-3 50 -17 136 -31 192 -26 109 -93 293 -106 293 -4 0 -28 -24 -54 -52z m83
-85 c53 -150 82 -293 82 -403 0 -77 20 -126 77 -190 22 -25 55 -74 73 -110 61
-118 112 -190 157 -216 66 -38 53 -76 -31 -93 -44 -9 -42 -27 4 -57 22 -15 37
-31 33 -35 -11 -10 -149 -50 -203 -58 -25 -4 -55 -12 -66 -19 -41 -22 -112
-112 -140 -178 l-29 -66 -90 -44 -90 -45 -165 -2 c-158 -2 -168 -1 -239 25
-41 15 -108 47 -150 70 l-76 43 -107 -1 c-106 -1 -107 -1 -96 20 6 11 17 29
25 38 27 30 10 46 -44 41 -26 -2 -55 1 -63 6 -13 9 -13 14 3 38 42 65 60 122
72 233 8 69 24 144 39 186 33 91 33 111 -4 219 -41 121 -60 227 -67 374 l-6
124 59 -33 c32 -18 88 -54 124 -79 77 -54 237 -205 245 -232 13 -39 25 -17 25
45 0 49 5 70 23 96 12 19 27 35 34 37 12 4 33 -55 33 -94 0 -34 18 -37 34 -6
22 44 118 129 160 143 70 23 146 -14 146 -70 0 -24 -8 -31 -61 -54 -55 -25
-80 -48 -66 -62 3 -3 16 1 29 9 12 8 40 20 60 26 20 7 42 19 49 27 10 12 15
10 30 -15 11 -18 30 -33 46 -36 15 -4 49 -13 75 -21 26 -8 48 -14 50 -14 9 0
8 182 -2 230 -16 85 -42 160 -55 160 -14 0 -88 -129 -105 -182 l-11 -37 -31
34 -30 35 43 73 c46 78 145 207 158 207 5 0 22 -39 39 -87z m-1035 -693 c4
-19 -4 -60 -22 -117 -18 -53 -33 -130 -40 -193 -10 -106 -27 -162 -63 -213
-31 -44 -21 -70 35 -87 48 -15 50 -19 33 -61 -4 -10 0 -24 10 -34 14 -14 28
-16 68 -11 70 8 91 0 120 -45 29 -44 125 -110 201 -138 29 -11 88 -25 132 -32
81 -12 81 -12 88 -46 9 -50 78 -116 148 -142 51 -18 79 -21 233 -21 136 0 175
-3 172 -12 -7 -21 -170 -141 -239 -176 -61 -31 -75 -33 -284 -52 -120 -12
-240 -18 -265 -14 -96 14 -226 76 -338 162 -30 23 -60 36 -82 38 -45 3 -150
42 -150 56 0 5 -7 7 -16 4 -8 -3 -13 -2 -10 3 3 5 0 11 -7 14 -22 8 -64 98
-87 182 -11 44 -23 125 -27 180 -14 259 77 495 267 688 53 53 101 97 107 97 6
0 13 -13 16 -30z m1306 -539 c19 -14 48 -51 65 -81 29 -52 31 -60 31 -165 0
-133 -14 -166 -89 -203 -45 -22 -113 -32 -338 -45 -10 -1 -18 -5 -18 -10 0 -4
-4 -5 -10 -2 -6 4 -10 -8 -10 -29 l0 -36 -52 -1 c-108 -3 -152 5 -205 39 -21
13 -22 15 -7 44 16 31 9 32 -27 1 -14 -12 -18 -11 -31 9 -30 47 -30 59 4 91
29 26 30 30 11 25 -31 -8 -30 17 2 38 42 27 99 29 168 4 34 -12 67 -27 74 -32
7 -6 36 -2 80 13 43 13 106 23 171 26 69 4 102 9 99 17 -6 16 -179 9 -252 -11
-68 -19 -121 -21 -135 -7 -12 12 120 67 146 62 12 -2 26 18 50 75 39 90 80
154 125 191 28 23 38 26 73 21 23 -4 56 -19 75 -34z m-26 -845 c59 -22 107
-64 133 -120 43 -93 23 -188 -54 -258 -61 -55 -86 -58 -130 -15 -64 60 -105
71 -167 41 -29 -14 -54 -49 -69 -97 -5 -17 -10 -15 -46 16 -22 18 -57 39 -79
45 -55 17 -193 15 -264 -4 -73 -19 -99 -32 -161 -79 -41 -31 -46 -33 -46 -15
0 11 -9 29 -20 40 -26 26 -68 26 -315 -1 -104 -11 -201 -21 -214 -22 -56 -5
-93 149 -57 235 21 49 84 103 142 121 27 8 108 20 179 26 187 16 439 39 770
71 344 33 349 33 398 16z m299 -366 c47 -47 35 -77 -67 -180 -47 -47 -85 -89
-85 -94 0 -4 26 -35 58 -67 31 -33 61 -69 66 -79 15 -33 -1 -84 -33 -103 -50
-29 -68 -22 -150 58 l-77 75 -50 -56 c-118 -134 -207 -162 -243 -76 -18 43 0
77 91 169 81 81 81 82 65 107 -9 13 -33 37 -52 52 -67 51 -83 117 -40 159 45
46 108 25 175 -60 19 -24 41 -46 49 -50 9 -3 47 27 106 85 107 104 134 113
187 60z m-696 -75 c39 -20 56 -35 73 -71 49 -97 10 -281 -80 -375 -41 -43
-123 -76 -231 -92 -214 -31 -319 66 -287 265 19 115 62 184 154 244 46 30 146
53 236 53 72 1 93 -3 135 -24z m-532 -69 c-1 -23 -8 -44 -18 -51 -8 -7 -91
-20 -183 -29 -93 -10 -169 -19 -171 -21 -1 -1 -5 -33 -9 -70 l-6 -68 54 6 c30
3 93 9 140 13 81 6 86 5 91 -14 9 -33 -3 -72 -27 -88 -13 -8 -74 -19 -146 -27
l-124 -12 -11 -70 c-15 -86 -42 -115 -108 -115 -72 0 -72 -1 -43 268 25 227
28 238 52 260 14 12 34 22 43 23 9 0 89 9 177 19 88 10 189 17 225 17 l65 -2
-1 -39z m717 -57 c32 -34 59 -64 59 -68 0 -10 -129 -135 -134 -130 -3 2 0 25
6 49 5 25 8 82 5 128 -3 45 -3 82 0 82 3 0 32 -28 64 -61z"/>
<path d="M1924 3801 c7 -80 35 -175 75 -261 l29 -61 23 30 c13 16 43 44 67 60
46 34 53 61 28 109 -27 51 -188 192 -220 192 -5 0 -6 -29 -2 -69z"/>
<path d="M2776 3309 c-14 -17 -26 -39 -26 -50 0 -23 25 -26 34 -4 3 9 21 22
40 30 38 16 72 9 95 -19 7 -9 17 -13 22 -10 16 10 10 34 -16 59 -19 20 -34 25
-74 25 -43 0 -53 -4 -75 -31z"/>
<path d="M2248 3214 c-34 -18 -48 -43 -48 -83 0 -41 13 -39 38 4 25 41 59 52
114 36 45 -14 51 -12 42 13 -16 41 -96 58 -146 30z"/>
<path d="M2610 3188 c-36 -5 -75 -10 -87 -11 -34 -3 -43 -55 -13 -79 12 -10
33 -18 46 -18 32 0 40 -24 20 -56 -24 -35 -43 -40 -82 -19 -43 23 -54 14 -18
-14 35 -28 76 -27 111 3 20 17 34 22 44 15 28 -17 84 -10 107 14 21 22 29 47
16 47 -4 0 -17 -11 -30 -25 -27 -29 -64 -32 -87 -7 -24 26 -21 40 13 72 23 21
30 36 28 59 -1 17 -2 30 -3 30 0 -1 -29 -6 -65 -11z"/>
<path d="M2975 1909 c-38 -5 -72 -13 -76 -17 -9 -9 -28 -154 -22 -165 3 -5 33
-6 67 -2 96 10 116 15 116 32 0 14 -11 15 -70 10 -65 -5 -70 -4 -70 14 0 15 7
19 33 20 89 3 120 39 33 39 -43 0 -56 3 -56 15 0 11 12 15 43 16 64 2 102 13
102 29 0 19 -14 20 -100 9z"/>
<path d="M2237 1904 c-16 -16 -6 -35 16 -32 12 2 22 10 22 18 0 16 -26 25 -38
14z"/>
<path d="M2702 1882 c-13 -9 -36 -146 -28 -168 5 -12 19 -13 73 -8 72 7 103
18 103 36 0 7 -21 9 -66 5 l-67 -5 7 68 c6 68 1 85 -22 72z"/>
<path d="M2515 1869 c-55 -5 -128 -12 -162 -15 -45 -4 -63 -10 -63 -20 0 -9
11 -14 34 -14 l34 0 -5 -76 c-6 -71 -5 -76 13 -72 15 3 21 17 29 75 6 39 12
74 15 76 3 3 34 8 69 11 l64 5 -6 -74 c-6 -70 -5 -75 13 -75 14 0 20 9 25 35
3 19 8 52 11 72 7 43 17 53 57 53 18 0 27 4 25 13 -6 16 -31 17 -153 6z"/>
<path d="M2229 1848 c0 -2 -6 -43 -13 -92 -10 -74 -10 -89 1 -93 8 -3 18 -2
23 3 10 10 31 164 24 176 -5 7 -33 12 -35 6z"/>
<path d="M2026 1821 c-13 -20 -27 -164 -18 -173 10 -10 142 -1 162 12 7 4 9
13 5 20 -5 9 -26 10 -71 5 l-63 -6 6 75 c4 52 2 76 -5 76 -6 0 -13 -4 -16 -9z"/>
<path d="M2526 1485 c-48 -17 -81 -56 -95 -112 -35 -135 16 -214 127 -199 101
14 152 81 152 202 0 78 -9 98 -51 113 -42 15 -85 13 -133 -4z m117 -16 c33
-18 37 -28 37 -94 0 -103 -46 -163 -133 -172 -40 -5 -49 -2 -73 22 -25 25 -26
31 -20 86 9 87 38 135 96 158 34 13 67 13 93 0z"/>
</g>
</svg>
